<?xml version="1.0" encoding="UTF-8"?><svg id="_图层_1" xmlns="http://www.w3.org/2000/svg" viewBox="0 0 483.83 110.67"><defs><style>.cls-1{opacity:.37;}.cls-1,.cls-2{fill:#b4b4b5;}.cls-3{fill:#1e90ff;}.cls-4{fill:#4169e1;}.cls-5{fill:#06f;}</style></defs><path class="cls-1" d="m177.97,35.43l-.85,7.23h-29.17s-4.51-.15-4.57,4.71c0,0-.33,3.97,3.24,4.09,5.06.17,22.31.27,22.31.27,0,0,9.18.96,10.41,10.84s-8.91,12.5-8.91,12.5c0,0-1.89.4-3.51.38h-30.86s0-7.17,0-7.17l31.47.23s1.67-.46,2.83-1.66c1.3-1.35,2.28-4.07.46-6.36-.6-.75-1.11-1.31-2.86-1.66l-19.75-.1s-11.55.5-12.16-11.53c0,0-.38-10.41,11.19-11.74h30.72Z"/><polygon class="cls-1" points="232.46 75.43 222.29 75.43 206.03 57.14 196.08 66.03 196.08 75.43 188.15 75.43 188.15 35.43 196.08 35.43 196.08 56.52 219.68 35.66 230.09 35.66 211.86 51.94 232.46 75.43"/><polygon class="cls-1" points="235.26 35.43 244.6 35.43 258.63 54.31 272.98 35.43 282.39 35.43 262.88 61.1 262.64 75.43 254.78 75.43 254.85 61.33 235.26 35.43"/><path class="cls-1" d="m325.09,54.43c4.74-2.48,3.35-9.96,3.35-9.96-2.04-9.49-12.6-9.04-12.6-9.04h-26.5v7.23h26.5c4.7-.46,5.21,4.01,5.21,4.01.73,3.98-3.19,5.02-3.19,5.02h-28.77v23.69h30.16c10.67-.73,11.13-9.61,11.13-9.61.88-8.33-5.28-11.34-5.28-11.34Zm-5.85,14.09h-22.53v-9.98h21.14c5.08.53,4.92,4.68,4.92,4.68.35,4.29-3.53,5.31-3.53,5.31Z"/><path class="cls-1" d="m360.57,34.75c-13.27,0-23.47,8.41-23.47,21.2s10.2,21.46,23.47,21.46,23.18-9.86,23.18-21.64-9.26-21.01-23.18-21.01Zm-.01,35.83c-8.6,0-15.59-6.49-15.59-14.49s6.98-14.49,15.59-14.49,15.59,6.48,15.59,14.49-6.97,14.49-15.59,14.49Z"/><path class="cls-1" d="m435.85,75.37h-10.19l-11.29-12.52h-14.39v12.52h-7.88v-19.64h27.36s5.09.52,6.27-5c0,0,1.53-7.13-6.07-8.07h-27.37v-7.12h27.37s12.08-.47,13.79,12.13c0,0,.91,9.28-6.27,13.1,0,0-1.53.8-3.84,1.37-.01,0-.02.01-.04.01h.51s12.04,13.22,12.04,13.22Z"/><path class="cls-1" d="m483.83,35.54v34.85c0,.19-.01.37-.04.56-.25,2.47-2.24,4.4-4.64,4.4-1.41,0-2.68-.68-3.54-1.73l-.06-.07-24.81-26.88v-2.05c-.44.24-.91.41-1.41.52l1.41,1.53v28.7h-7.76v-35.08c0-2.74,2.33-4.97,5.21-4.97,1.56,0,2.96.65,3.92,1.69l.15.16,24.11,25.81v-27.44h7.47Z"/><path class="cls-2" d="m450.74,44.62v2.05l-1.41-1.53c.51-.11.98-.28,1.41-.52Z"/><path class="cls-2" d="m450.74,44.62v2.05l-1.41-1.53c.51-.11.98-.28,1.41-.52Z"/><path class="cls-5" d="m55.92,0l24.3,13.16s-6.75,2.98-7.59,6.9l-6.3-3.19-.28,31.48,9.79,5.33.17-30.4s2.02-8.93,11.3-6.5l13.5,7.21s5.65,2.19,5.82,6.5v50.7l-23.71-12.85s6.36-3.03,7.42-7.47l5.46,3.03.03-30.9-9.28-5.09-.42,30.09s-.84,9.72-12.57,5.64l-11.14-6.11s-6.92-2.37-6.5-6.44,0-51.08,0-51.08Z"/><path class="cls-5" d="m79.66,98.37l23.96-13.06-44.77-24.14s-6.38-3.46-10.31-.44l-10.54,5.96s-11.56,7.13-4.09,13.2l28.77,16.55-9.11,4.86-29.53-15.96,5.57-3.21s-2.78-2.82-2.7-10.11l-23.79,13.32,44.37,23.98s6.07,3.06,11.22,0l14.34-7.84s5.23-7.52-1.43-11.6l-27.08-14.65,8.83-5.72,29.25,15.87-5.77,2.54s4.11,5.93,2.81,10.45Z"/><path class="cls-5" d="m51.09,25.55V0L5.31,24.08S-.37,27.22.02,31.71L0,46.29s.41,8.62,10.2,7.63l29.81-15.1.22,9.3-29.19,15.67-.42-6.03S3.55,59.4,0,54.7v26.49l47.82-25.44s3.04-2.3,3.26-6.06v-15.78s-4.05-10.66-12.37-5.64l-27.67,14.42-.11-10.13,29.02-15.36.11,6.06s7.31-.21,11.02,2.3Z"/><path class="cls-5" d="m173.52,35.42l-.85,7.23h-29.17s-4.51-.15-4.57,4.71c0,0-.33,3.97,3.24,4.09,5.06.17,22.31.27,22.31.27,0,0,9.18.96,10.41,10.84s-8.91,12.5-8.91,12.5c0,0-1.89.4-3.51.38h-30.86s0-7.17,0-7.17l31.47.23s1.67-.46,2.83-1.66c1.3-1.35,2.28-4.07.46-6.36-.6-.75-1.11-1.31-2.86-1.66l-19.75-.1s-11.55.5-12.16-11.53c0,0-.38-10.41,11.19-11.74h30.72Z"/><polygon class="cls-3" points="228.01 75.42 217.83 75.42 201.58 57.12 191.62 66.02 191.62 75.42 183.7 75.42 183.7 35.42 191.62 35.42 191.62 56.51 215.22 35.65 225.64 35.65 207.41 51.93 228.01 75.42"/><polygon class="cls-5" points="230.81 35.42 240.14 35.42 254.18 54.3 268.53 35.42 277.94 35.42 258.42 61.09 258.19 75.42 250.32 75.42 250.4 61.32 230.81 35.42"/><path class="cls-3" d="m320.64,54.42c4.74-2.48,3.35-9.96,3.35-9.96-2.04-9.49-12.6-9.04-12.6-9.04h-26.5v7.23h26.5c4.7-.46,5.21,4.01,5.21,4.01.73,3.98-3.19,5.02-3.19,5.02h-28.77v23.69h30.16c10.67-.73,11.13-9.61,11.13-9.61.88-8.33-5.28-11.34-5.28-11.34Zm-5.85,14.09h-22.53v-9.98h21.14c5.08.53,4.92,4.68,4.92,4.68.35,4.29-3.53,5.31-3.53,5.31Z"/><path class="cls-4" d="m356.12,34.74c-13.27,0-23.47,8.41-23.47,21.2s10.2,21.46,23.47,21.46,23.18-9.86,23.18-21.64-9.26-21.01-23.18-21.01Zm-.01,35.83c-8.6,0-15.59-6.49-15.59-14.49s6.98-14.49,15.59-14.49,15.59,6.48,15.59,14.49-6.97,14.49-15.59,14.49Z"/><path class="cls-4" d="m431.4,75.36h-10.19l-11.29-12.52h-14.39v12.52h-7.88v-19.64h27.36s5.09.52,6.27-5c0,0,1.53-7.13-6.07-8.07h-27.37v-7.12h27.37s12.08-.47,13.79,12.13c0,0,.91,9.28-6.27,13.1,0,0-1.53.8-3.84,1.37-.01,0-.02.01-.04.01h.51s12.04,13.22,12.04,13.22Z"/><path class="cls-5" d="m479.38,35.53v34.85c0,.19,0,.37-.04.55-.25,2.47-2.23,4.4-4.64,4.4-1.41,0-2.68-.67-3.54-1.73l-.06-.07-24.81-26.87v28.7h-7.76v-35.08c0-2.75,2.34-4.97,5.21-4.97,1.56,0,2.96.65,3.92,1.69l.14.16,24.11,25.81v-27.44h7.47Z"/></svg>
